<svg xmlns="http://www.w3.org/2000/svg" width="1024" height="1024" viewBox="0 0 1024 1024"><path fill="#FE9817" d="M543 354a83 83 0 0 1 7 6v2h2c10.633 14.28 16.302 32.267 13.707 50.002C563.87 422.203 560.021 430.974 555 440h-2l-.75 2.2c-1.374 3.078-2.997 5.115-5.25 7.613l-2.125 2.394C543 454 543 454 541 454v2a121 121 0 0 1-6.75 4.688l-2.046 1.34C515.34 473 515.34 473 512 473v2a111 111 0 0 1-6.437 3.938 410 410 0 0 0-17.313 10.687l-2.18 1.42-4.175 2.724a720 720 0 0 1-7.707 4.918 472 472 0 0 0-10.875 7.125c-4.614 3.092-9.284 6.071-14 9-20.233 12.263-20.233 12.263-39.512 25.907C408 542 408 542 406 542v2c-1.574 1.586-1.574 1.586-3.687 3.375l-2.075 1.773a166 166 0 0 1-4.742 3.774C382.506 563.737 373.878 580.09 369 596l-1.031 3.352c-6.19 24.01-1.156 49.328 11.203 70.441 13.277 21.782 34.318 36.473 59.14 42.582 27.994 6.182 55.7-.46 79.688-15.375 3.496-2.495 6.744-5.203 10-8q2.495-1.976 5-3.937c4.515-3.594 8.759-7.432 12.969-11.375C548 672 548 672 550 672v-2c1.582-1.375 1.582-1.375 3.813-3 4.78-3.607 9.163-7.54 13.566-11.594 2.803-2.573 5.659-5.075 8.539-7.562a200 200 0 0 0 4.633-4.25c11.697-10.986 23.422-18.549 39.949-19.032 14.072.53 27.31 4.734 38.5 13.438v2l1.727.73c10.058 5.618 14.803 17.192 18.41 27.528 2.728 11.825 2.188 25.79-3.137 36.742l-1.145 2.484c-5.453 10.347-15.095 18.146-23.806 25.71-3.449 3.04-6.776 6.206-10.111 9.369l-4.485 4.234-2.256 2.13a2227 2227 0 0 1-26.306 24.428q-2.933 2.681-5.844 5.383C590.344 789.588 578.557 799.521 565 808l-2 1.262c-41.158 25.767-89.086 34.55-137 27.738l-2.226-.292c-12.327-1.64-23.989-4.773-35.774-8.708l-2.1-.699c-21.971-7.453-41.354-18.48-59.9-32.301l-2-1.41c-6.286-4.492-11.844-9.801-17.437-15.11a461 461 0 0 0-4.165-3.882c-38.195-36.392-58.252-91.074-59.742-142.946-.326-15.084.488-29.823 3.344-44.652l.844-4.762c8.12-43.734 30.982-81.22 62.156-112.238l1.73-1.8c1.386-1.438 2.827-2.82 4.27-4.2h2v-2c1.37-1.293 1.37-1.293 3.297-2.758l2.14-1.635 2.313-1.732 2.34-1.765c17.047-12.773 17.047-12.773 24.91-15.11v-2c1.737-1.293 1.737-1.293 4.172-2.758l2.686-1.635 2.892-1.732q2.908-1.767 5.813-3.54l2.847-1.734c4.026-2.488 7.933-5.127 11.824-7.82 3.053-1.966 6.193-3.696 9.375-5.443 3.908-2.187 7.708-4.546 11.516-6.9 8.507-5.25 8.507-5.25 12.66-7.586a79 79 0 0 0 7.527-4.914c5.329-3.783 10.87-7.156 16.457-10.536 5.644-3.418 11.228-6.92 16.793-10.464 6.819-4.338 13.719-8.501 20.708-12.558 3.68-2.144 7.274-4.35 10.793-6.755 17.779-12.103 37.616-11.44 54.937 1.375"/><path fill="#FEB715" d="M677 268c11.623 9.125 20.553 20.089 23 35 1.235 14.316 1.172 28.706-6.312 41.313l-1.147 2.048c-2.394 4.153-4.98 7.375-8.541 10.639-.73.692-1.46 1.384-2.21 2.098-13.936 12.651-29.165 15.657-47.62 15.034-14.274-.868-28.131-8.482-37.795-18.82-9.65-11.522-13.554-24.219-13.625-38.937l-.062-3.16c-.05-9.859 2.334-17.824 6.687-26.59l1.71-3.523c1.995-3.231 3.894-4.863 6.915-7.102a104 104 0 0 0 3-3.812c18.468-21.328 54.597-18.941 76-4.188"/><path fill="#FEC813" d="M781.207 181.152c11.746 7.77 11.746 7.77 13.566 13.121L795 196h2q1.226 2.84 2.438 5.688l1.37 3.199c3.607 9.424 3.83 22.596.192 32.113-1.849 3.761-3.859 7.398-6 11h-2l-.777 1.785c-3.63 6.576-11.43 11.397-18.223 14.215-3.65 1.041-7.228 1.61-11 2-.852.095-1.704.19-2.582.29-11.96.68-23.891-3.787-33.148-11.185-3.316-3.075-5.928-6.242-8.27-10.105l-1.14-1.86a48.22 48.22 0 0 1-4.735-34.64c3.318-10.94 9.462-20.843 18.875-27.5 2.57-1.35 5.197-2.361 7.938-3.312l2.24-.782c13.395-4.324 26.908-2.712 39.029 4.246"/><path fill="#FDAE17" d="M678.11 436.473c8.78 7.094 14.606 16.437 16.89 27.527.953 13.197-1.19 25.774-9.785 36.156-7.721 8.228-17.985 13.71-29.371 14.278q-2.672.025-5.344.004l-2.684.06c-6.464-.005-11.14-1.472-16.816-4.498l-2.785-1.387c-10.265-5.863-16.298-13.56-19.895-24.722-3.395-12.746-1.436-24.474 4.68-35.891h2l.754-2.25c3.437-7.586 11.34-11.68 18.668-14.84 13.733-4.848 31.953-3.07 43.687 5.563"/><path fill="#F17B24" d="m333 799 2.668.219 3.52.281 3.48.281c2.793.184 5.535.261 8.332.219v4l2 1v2l3-1 1 2h3v2h-2v2h2v2h3v2l3.438-.062c3.135-.012 6.141.218 9.25.625 3.338.415 6.036.388 9.312-.563.563 1.938.563 1.938 1 4l-1 1c5.645 2.531 5.645 2.531 11.625 2.438L399 823c2 2 2 2 2 5 6.34 3.17 11.97 4.238 19 4l2.188.563c1.873.594 1.873.594 4-.063 4.051-.72 7.758-.027 11.812.5q2.78.29 5.563.563L448 834v-2h2l1 5h29v-4c2.813-.625 2.813-.625 6-1l3 2 2-2v2h3l1-2c2.547-.633 2.547-.633 5.75-1.125l3.172-.508A55 55 0 0 1 512 830v-7l11 1v-2l3-1 1-5 3-1 2 2 1.75-1.062c2.692-1.122 3.513-.622 6.25.062 3.473-1.194 5.481-3.402 8-6a123 123 0 0 1 4-3l8 4c-39.715 25.104-87.924 32.552-134 26l-2.226-.292c-12.327-1.64-23.989-4.773-35.774-8.708l-2.1-.699C367.97 821.22 346.16 813.076 333 799"/><path fill="#F9B11B" d="m472 362 3 1c-3.75 3-3.75 3-6 3l-1 3-2 1.438c-2.292 1.79-2.611 2.743-3 5.562h-3l2 5-1.937.375L458 382l-1 2h-3v-3h-2l-1 2-2-1v2l-2.625.25c-3.857.857-6.126 2.56-9.375 4.75h-4l-1 3h-2v2q-1.47 1.53-3 3l-1 2c-1.996.563-1.996.563-4.437 1-3.701.623-3.701.623-6.563 3 .32 2.603.32 2.603 1 5l-1.812-.562c-2.352-.659-2.352-.659-5.188.562l-1 6-2.312-.187c-2.737-.112-2.737-.112-4.188 1.75L400 417l-2.375-.5c-2.675-.766-2.675-.766-5.187.625-3.621 2.785-5.921 6.1-8.438 9.875q-2.495 1.01-5 2l-2.312 2.188c-3.016 2.033-3.38 1.961-6.75 1.375-3.769-.963-3.769-.963-6 .687L362 435c-6.468 3.177-6.468 3.177-10 2l1.737-1.066c14.414-8.82 14.414-8.82 28.497-18.153 3.053-1.966 6.193-3.696 9.375-5.443 3.908-2.187 7.708-4.546 11.516-6.9 8.507-5.25 8.507-5.25 12.66-7.586a79 79 0 0 0 7.527-4.914c5.321-3.778 10.854-7.145 16.432-10.522 5.873-3.56 11.701-7.184 17.506-10.853l2.38-1.503 2.26-1.431 2.135-1.347c1.82-1.181 3.573-2.427 5.334-3.692z"/><path fill="#F7A91A" d="m353 439-1 8c-5.395 2.271-10.262 2.204-16 2v15c-7 0-7 0-10.437-.125-3.614-.279-3.614-.279-5.563 2.125l-1 2-2-1v3l4 1c-.687 2.438-.687 2.438-2 5-2.625.813-2.625.813-5 1l-1 4-8-1c-1.205 2.998-1.205 2.998-.812 6.313-.23 4.505-1.084 6.424-4.188 9.687-3.5.313-3.5.313-7 0-4.277.377-6.13 2.984-9 6l-3 2c1.458-4.509 3.986-7.68 7.063-11.187l1.476-1.715a602 602 0 0 1 11.488-12.88 101 101 0 0 0 3.97-4.761c1.907-2.339 3.857-4.288 6.128-6.27l2.07-1.832C315 464 315 464 317 464v-2c1.37-1.293 1.37-1.293 3.297-2.758l2.14-1.635 2.313-1.732 2.335-1.765C347.222 439 347.222 439 353 439"/><path fill="#F9B918" d="M537.813 350.313c4.334 2.965 8.389 6.058 12.187 9.687v2h2c10.333 13.876 15.58 30.77 14 48-1.25 7.186-3.143 14.283-6 21h-1c-.2-3.716-.152-4.772 2-8 2.45-8.167 3.739-18.784 1-27-.266-2.767-.444-5.534-.621-8.309-.378-2.686-1.169-4.305-2.379-6.691v-4l-6-1v-9h-2l-1 4-1-5h-2l-1-5-6 1v-2h-4l-.875-2.937c-.767-3.17-.767-3.17-3.125-4.063v-3h-3v2c-6.695-.901-6.695-.901-9.125-1.687-2.71-.452-4.407.576-6.875 1.687a91 91 0 0 1-4 1l-2-3h-2v2l-3.312-.187c-3.589-.193-3.589-.193-5.375 1.625L495 355a127 127 0 0 1-4 1q-2.514.932-5 1.938l-2.562 1.027c-2.427.978-2.427.978-4.563 2.226C477 362 477 362 474 361l2.344-1.355c6.97-4.037 6.97-4.037 13.781-8.332 14.752-9.352 32.626-10.3 47.688-1"/><path fill="#EC8E29" d="M664 721a701 701 0 0 1-3 3.063l-1.687 1.722c-1.978 1.894-3.992 3.694-6.06 5.488-4.207 3.66-8.27 7.453-12.316 11.29l-4.484 4.234-2.256 2.13a2227 2227 0 0 1-26.306 24.428q-2.933 2.681-5.844 5.383C594.878 785.381 587.506 791.741 580 798l-4-2 1-3h2v-2l-3-1v-4h3l1-2q2.125-.04 4.25-.062l2.39-.036c2.267.094 4.189.466 6.36 1.098l-1-3 5-2v-3l-2.5-1.5-2.5-1.5v-3l4 1v3l7 1v-5l2.75-.687c3.745-1.513 4.917-3.095 7.25-6.313 3-2 3-2 5-2l-1-3-1 1c-1.666.04-3.334.043-5 0l1-6 2.75.625c3.495.403 4.319.036 7.25-1.625h4l2-4h4v-3h3v-4l-2-1 5-4v2c1.708-1.634 2.935-2.87 4-5l4 1v-3h4v-2c1.313-1.625 1.313-1.625 3-3h3v-5c5.75-2.125 5.75-2.125 8-1"/><path fill="#FAA414" d="M648 631v1h-5l.625 1.875L644 636l-2 2c-2.125-.375-2.125-.375-4-1l2-4h2v-3l-1 2h-8l-1-3-8-1v2l-6-1v3l6-1v3h-16l-1-2-3 2-3 .938c-3.008 1.065-3.88 1.85-6 4.062-2.687 1.188-2.687 1.188-5 2v2l2 1v4c-1.666.043-3.334.04-5 0l-1-1-2 7h-3l-1-5-4-1c20.442-19.792 44.158-30.92 72-17"/><path fill="#F78C1E" d="m402 696 1.914 1.066A942 942 0 0 0 413 702l3.32 1.816C424.737 708.255 432.705 711 442 713l2.691.586c18.368 2.299 36.6.779 53.565-6.692 1.56-.682 3.15-1.295 4.744-1.894l2 1c-4.898 3.376-9.473 5.719-15.215 7.324-1.991.523-1.991.523-2.785 2.676-7.595 3.48-14.72 4.587-23 4v-3l-2.52.219-3.293.281-3.269.281C452 718 452 718 449 718l-1 2h-11v-2h-3v-2l6-1-16-4v-2h-5v-2l-2.687-.875c-2.821-.958-5.569-1.97-8.313-3.125l-2.187-.812c-2.472-1.62-2.82-3.47-3.813-6.188"/><path fill="#F3AE22" d="m595 279 1 4-3 2c-.36 1.661-.69 3.329-1 5-1.437 2.813-1.437 2.813-3 5h-2c-1.833 7.456-2.252 14.467-2.125 22.125l.027 3.188q.036 3.843.098 7.687h2l.313 3.313c.312 3.607.312 3.607 2.25 5.25C591 338 591 338 591.188 341.188L591 344h3v2h2c2.788 4.066 4.45 8.35 6 13h6v3l1.813.313c2.187.687 2.187.687 3.5 2.093 2.117 2 4.158 2.758 6.875 3.781l2.73 1.043L625 370l-2 2c-16.992-7.132-28.453-15.85-36.59-32.508-3.203-7.932-3.749-14.887-3.722-23.367l-.05-3.105c-.006-9.882 2.482-17.84 6.924-26.582l.92-1.862c2.255-4.444 2.255-4.444 4.518-5.576"/><path fill="#FA821B" d="M302 751c1.563 1.188 1.563 1.188 3 3-.312 2.188-.312 2.188-1 5-.1 2.674-.045 5.323 0 8l3 1v2h-3v5c-4.707-3.683-8.612-7.684-12.437-12.25l-1.361-1.61C287 757.252 287 757.252 287 755h2v-3l2.59.035 3.348.028 3.34.035c2.636.215 2.636.215 3.722-1.098"/><path fill="#F6A122" d="M420 530c2.094.414 2.094.414 4 1l-2.484 1.645-3.266 2.168-3.234 2.144a99 99 0 0 0-5.282 3.805C408 542 408 542 406 542v2c-1.574 1.586-1.574 1.586-3.687 3.375l-2.223 1.898a153 153 0 0 1-4.715 3.727c-3.185 2.682-5.745 5.783-8.375 9-.562-1.937-.562-1.937-1-4l1-1h-3c.75-4.75.75-4.75 3-7l2.063-.5L391 549l1-2-4 1-1-4c2-.043 4-.04 6 0l1 1q3.5.062 7 0l-1-8 2-1c1.134-2.017 1.134-2.017 2-4l2 1v3l5 1 2-3a280 280 0 0 1 4-1l1.5-1.625z"/><path fill="#F6811A" d="m552 807 8 4c-26.651 16.722-26.651 16.722-40 15l1-2h2v-2l3-1 1-5 3-1 2 2 1.75-1.062c2.692-1.122 3.513-.622 6.25.062 3.473-1.194 5.481-3.402 8-6a123 123 0 0 1 4-3"/><path fill="#F0B32C" d="M540 353c3.957 1.674 6.845 4.131 10 7v2h2c10.333 13.876 15.58 30.77 14 48-1.25 7.186-3.143 14.283-6 21h-1c-.2-3.716-.152-4.772 2-8 2.45-8.167 3.739-18.784 1-27-.266-2.767-.444-5.534-.621-8.309-.378-2.686-1.169-4.305-2.379-6.691v-4l-6-1v-9h-2l-1 4-1-5h-2l-1-5-3-1 1-2c-1.229-1.294-1.229-1.294-4-3z"/><path fill="#F0BD35" d="M672 265c-2.31.803-3.533 1.177-5.86.293l-1.89-1.106c-6.784-3.947-14.086-4.512-21.75-4.812l-2.492-.117q-3.003-.138-6.008-.258l1 5-3.613-.035q-2.35-.015-4.7-.027l-2.38-.026-2.295-.01-2.11-.016c-2.127.045-2.127.045-4.902 1.114v3l-6-1v3l-2.937 1.375c-3.134 1.283-3.134 1.283-4.063 3.625h-2l-2 4-2-1c18.596-23.881 50.343-26.46 76-13"/><path fill="#FB7C1A" d="M308 771h4v7l2 1v2l5 1v2l3-1c3.125.688 3.125.688 6 2 .938 2 .938 2 1 4l-1 2 1.5 1.375C331 794 331 794 331 796l4 1h-2v2c-4.042-1.386-6.717-3.296-10-6l-2.613-2.078C314.575 786.246 309.14 781.406 304 776l4-1zm6 5 2 2h-2z"/><path fill="#FCAE10" d="m548 443 4 1a923 923 0 0 1-4.375 5l-2.46 2.813c-.715.721-1.43 1.443-2.165 2.187h-2v2a144 144 0 0 1-7.187 4.938l-2.042 1.341A612 612 0 0 1 526 466l-2.863 1.879L521 469l-2-1c2.545-2.969 5.49-4.362 9-6l-.125-2.312C528 457 528 457 530 454h-2l-1-6 3-1 1 2c2.38.843 2.38.843 5 1l3-2v2h5l1-4 3 1z"/><path fill="#FBBE0D" d="m623.188 263.375 2.73.336L628 264l-4 1v3c-5.13 2.104-9.561 2.218-15 2v-3l6 1v-3c3.452-2.301 4.235-2.138 8.188-1.625M606 270l3 1c-1.375 2-1.375 2-3 4h-2l1.938 3.313c1.328 2.27 2.22 4.161 3.062 6.687l-1 3h-2l-1-6h-3l-2 6h-4c-.626-8.144-.626-8.144 1.875-11.562C600 275 600 275 602 275l.875-1.937C604 271 604 271 606 270"/><path fill="#F88722" d="M254 694h3l.75 1.938c1.066 2.25 1.066 2.25 3.375 2.812L263 699l.375 1.938L264 703l2 1c1.267 6.909 1.267 6.909.402 10.445-.5 3.176.18 4.764 1.473 7.68l1.117 2.57L270 727l1 3 4 1 2 10c-4.407-3.707-6.652-8.47-9.25-13.5l-1.448-2.782C254 700.63 254 700.63 254 694"/><path fill="#FE9E1C" d="M377 561h2l2 5 1-2 3 1-1.355 1.836C377.019 576.019 372.64 585.3 369 596c-1.181-3.412-.805-5.238.5-8.562 1.474-3.625 1.474-3.625.5-7.438l-1-3-2-1c1.352-2.939 2.9-5.292 5-7.75l1.563-1.86C375 565 375 565 377 565z"/><path fill="#ED8B28" d="M244 600h1l1 40h2q.291 4.125.563 8.25l.17 2.355.146 2.286.143 2.094C249 657 249 657 248.445 659.195L248 661l1 1c.072 2.02.084 4.042.063 6.063l-.028 3.347L249 674c-3.312-4.968-3.37-10.853-4.125-16.687l-.27-2.054c-1.408-10.909-1.97-21.7-1.917-32.697l.007-2.05c.045-6.908.243-13.681 1.305-20.512"/><path fill="#FBC011" d="M664.938 263.438 668 265l3.25.688c9.509 3.328 17.312 11.753 21.938 20.578L694 288h-3l-1 2-.375-2.937L689 284l-2-1v-4h-2a523 523 0 0 1-4-5c-1.937-1.893-1.937-1.893-4-3-2.882.882-2.882.882-5 2a140 140 0 0 1-4-1h-4l-1-5-3-1v-2l-2.312 1C655 266 655 266 652 266l-1-3c5.211-2.606 8.763-2.094 13.938.438"/><path fill="#FDA110" d="M615 496h2v2l4-2 1.313 1.438c1.71 1.799 1.71 1.799 4.687 2.562l2 2 3-2-1 3h5l-1 2-3 1-1 2 2.52.621 3.293.817 3.269.808A90 90 0 0 1 646 512c1.481.08 2.966.108 4.45.098l2.568-.01 2.67-.025 2.705-.014q3.303-.018 6.607-.049c-4.647 2.663-8.95 2.368-14.187 2.375l-2.752.074c-6.579.028-11.295-1.338-17.061-4.449l-2.855-1.457c-5.526-3.212-9.317-6.406-13.145-11.543z"/><path fill="#F9A711" d="M649 632c3.408 1.929 6.741 3.828 10 6v2l1.707.695c2.907 1.654 4.749 3.694 6.98 6.18l2.387 2.617c1.782 2.32 2.535 3.658 2.926 6.508h-2v-2l-4 1v-2l-3 1v2h-5l1-1.75c1.974-4.442.571-7.93-1-12.25h-2v-2h-8v-2l-3-1 4-1z"/><path fill="#EFBA23" d="m512 345 2 3h-3l-3 1-3 1v2l-3.312-.187c-3.589-.193-3.589-.193-5.375 1.625L495 355a127 127 0 0 1-4 1q-2.514.932-5 1.938l-2.562 1.027c-2.427.978-2.427.978-4.563 2.226C477 362 477 362 474 361l2.344-1.355c6.97-4.037 6.97-4.037 13.781-8.332 5.724-3.629 15.048-9.044 21.875-6.313"/><path fill="#F09523" d="M664 721a701 701 0 0 1-3 3.063l-1.687 1.722c-1.961 1.878-3.958 3.66-6.008 5.438-5.314 4.618-10.384 9.485-15.477 14.343l-2.195 2.082-1.972 1.88C632 751 632 751 630 752v-3h2v-3h3v-4l-2-1 5-4v2c1.708-1.634 2.935-2.87 4-5l4 1v-3h4v-2c1.313-1.625 1.313-1.625 3-3h3v-5c5.75-2.125 5.75-2.125 8-1"/><path fill="#F98C18" d="M580 784h9c.809 2.2.809 2.2 1 5-2.09 2.457-2.09 2.457-4.937 4.813l-2.84 2.394L580 798l-4-2 1-3h2v-2l-3-1v-4h3z"/><path fill="#ECC131" d="m783 256 2 1c-8.722 6.964-18.81 9.702-29.945 9.438-6.564-.94-12.819-3.247-19.055-5.438v-1c6.055-.977 6.055-.977 8-1l2 2-1 1c8.4 1.6 17.657 1.984 26 0l-3-1v-3c5.75-.125 5.75-.125 8 1l3.5-1.5z"/><path fill="#F3BD29" d="M715 234c1.5 1.375 1.5 1.375 3 3v2l3 1v5l1.813-1.5C725 242 725 242 728 242v4h-3l1 4 4 1v-4h3c1.125 5.75 1.125 5.75 0 8l4 2-2 3c-9.315-5.891-16.05-12.522-20-23z"/><path fill="#F18122" d="m292 755 3 6v-3l3 1v2l3 1 3 5 3 1v2h-3v5c-6.664-5.216-11.726-11.441-17-18 3-2 3-2 5-2"/><path fill="#EE942C" d="M365 632h1l.629 3.375c3.329 16.879 9.64 30.504 19.371 44.625l-3 1-1.242-2.152-1.633-2.785-1.617-2.778c-1.305-2.392-1.305-2.392-3.508-3.285v3l-3-1 .688-2.187c.401-3.618-.829-4.764-2.688-7.813v-6c-.823-2.738-1.905-5.36-3-8-2.236-5.414-2.205-10.235-2-16"/><path fill="#FAA210" d="M387 544c3.947-.18 6.598-.094 10 2 .313 2.688.313 2.688 0 6-2.125 2.563-2.125 2.563-5 5l-1.668 1.422c-1.43 1.21-2.88 2.396-4.332 3.578 0-4 0-4 1-5h-3c.75-4.75.75-4.75 3-7l2.063-.5L391 549l1-2-4 1z"/><path fill="#F4A61E" d="m474 488 2.375.563c2.596.697 2.596.697 4.625-.563 1.54-.07 3.083-.085 4.625-.062l2.477.027L490 488c-4.109 3.45-8.455 6.299-13 9.125l-2.117 1.34c-3.538 2.21-6.92 4.157-10.883 5.535v-6l2.188-.375C469.002 497 471.42 496.29 474 495l1-3-3-1z"/><path fill="#FEF4C6" d="M631 255a74 74 0 0 1 8.875-.375l2.583.018c6.808.138 13.068 1.186 19.542 3.357v2l10-2-2 5 4 1v2c-4.527-1.43-8.874-3.155-13.242-5-7.452-2.702-13.888-3.266-21.758-3.125l-2.926.027q-3.537.035-7.074.098z"/><path fill="#E9B339" d="m595 279 1 4-3 2c-.36 1.661-.69 3.329-1 5-1.437 2.813-1.437 2.813-3 5h-2c-3.47 13.226-2.507 27.518-1 41-3.445-6.43-3.215-12.458-3.25-19.625l-.062-3.16c-.05-9.991 2.382-17.938 6.875-26.777l.92-1.862c2.254-4.444 2.254-4.444 4.517-5.576"/><path fill="#F79221" d="m627 749 3 1c-.517 4.03-2.431 5.653-5.437 8.25l-2.434 2.14C620 762 620 762 618 762l-1-3-1 1c-1.666.04-3.334.043-5 0l1-6 2.75.625c3.495.403 4.319.036 7.25-1.625h4z"/><path fill="#FEFADF" d="M800 203h2c2.802 6.813 3.386 12.742 3.188 20.063l-.042 2.912A598 598 0 0 1 805 233h-2l-.25 3.063c-.622 4.362-2.278 7.302-4.75 10.937l-3 1c1.413-3.769 3.15-7.23 5.098-10.742 4.085-10.222 2.648-23.836-.098-34.258"/><path fill="#F0A82F" d="M614 625c11.794-.529 23.32.66 34 6v1h-5l.625 1.875L644 636l-2 2c-2.125-.375-2.125-.375-4-1l2-4h2v-3l-1 2h-8l-1-4-18-2z"/><path fill="#EDB62C" d="M455 374v2l-2.937 1.25L449 379l-.395 1.941C448 383 448 383 445.891 384.45l-2.641 1.238-2.61 1.262c-2.554 1.017-4.933 1.608-7.64 2.051l-1 3h-2v2l-3 1v-2l-4 1c2.316-2.517 4.76-4.219 7.676-5.996l2.76-1.693 2.877-1.748 5.613-3.434 2.666-1.629a153 153 0 0 0 5.951-3.91C453 374 453 374 455 374"/><path fill="#E4772C" d="M448 832h2l1 5h29v1c-7.157 1.115-14.203 1.149-21.437 1.125l-3.565.012c-6.418-.007-12.636-.28-18.998-1.137v-1l3.188-.437c2.967-.438 5.88-.941 8.812-1.563z"/><path fill="#EC7A2C" d="m333 799 2.668.219 3.52.281 3.48.281c2.793.184 5.535.261 8.332.219v3h-6l2 1.313 2 1.687v3l2.188.813c2.788 1.177 5.253 2.578 7.812 4.187l-2 1a118 118 0 0 1-7.625-4.062l-2.187-1.25c-5.02-2.909-9.724-5.968-14.188-9.688z"/><path fill="#FEF2CE" d="M679 669h2q.112 6.002.165 12.006.022 2.037.061 4.076c.254 13.55.254 13.55-3.226 19.918l-.437 3.313L677 711c-2 1.188-2 1.188-4 2l-1 3-4 4-3-1 1.355-1.363c10.142-10.79 12.992-22.689 12.77-37.074l-.027-3.374q-.036-4.095-.098-8.189"/><path fill="#FAF8EA" d="M541 454h2c.75 2.75.75 2.75 1 6-1.437 2.375-1.437 2.375-4 4-1.996-.032-3.992-.07-5.984-.187-3.47.322-5.498 2.943-8.016 5.187-3.375.813-3.375.813-6 1 2.904-3.116 5.875-5.337 9.5-7.562 2.66-1.642 5.245-3.24 7.719-5.153C539 456 539 456 541 456z"/><path fill="#F4AD24" d="m353 439-1 8c-5.395 2.271-10.262 2.204-16 2v2c-2.375 1.688-2.375 1.688-5 3l-2-1c18.22-14 18.22-14 24-14"/><path fill="#FD7818" d="m478 833-1 3 3 1h-29v-3l2.563.07c7.52.19 7.52.19 14.875-1.133 3.688-.97 5.902-.852 9.562.063"/><path fill="#E9B730" d="m562 385 2 1c4.64 14.953 2.026 30.832-4 45h-1c-.2-3.716-.152-4.772 2-8 2.45-8.167 3.739-18.784 1-27a119 119 0 0 1-.062-5.687l.027-3.012z"/><path fill="#ECAD2E" d="m548 443 4 1a923 923 0 0 1-4.375 5l-2.46 2.813c-.715.721-1.43 1.443-2.165 2.187h-2v2a144 144 0 0 1-7.187 4.938l-2.042 1.341A612 612 0 0 1 526 466l-2.863 1.879L521 469l-2-1c1.92-2.24 3.406-3.195 6.125-4.5 3.171-1.231 3.171-1.231 3.875-4.5 1.742-.914 1.742-.914 3.875-1.625l2.117-.727L537 456l3-1 1-5h3l1-4 3 1z"/><path fill="#FA9C20" d="M678 693c1.86 4.85-.495 8.459-2.469 12.95-2.908 5.793-6.228 10.298-11.531 14.05v-3h2l.875-1.875C668 713 668 713 670 711v-3.25c0-4.456 1.021-7.793 3-11.75l1 4h2l.438-2.937C677 694 677 694 678 693"/><path fill="#EEA126" d="M674 658c3.812 5.718 6.533 12.166 5.875 19.125L679 681l-2 1-1-2h-2l1-8-3-1v-5h3z"/><path fill="#FCB014" d="m407 405 5 1-2 2h-1l-1 6-2.312-.187c-2.737-.126-2.737-.126-4.063 1.75L400 417c-2.262-.145-2.262-.145-4.687-.812l-2.45-.645L391 415l1.852-.875c2.297-1.105 2.297-1.105 4.523-3.125 2.81-2.142 5.287-2.938 8.625-4z"/><path fill="#FAB017" d="M548 432h11l-4 8h-2l-1 3h-4l-2-2c.313-1.812.313-1.812 1-4z"/><path fill="#FEFBD1" d="m750 171 2 1c3.324.2 6.642.345 9.97.43 4.49.199 7.396.9 11.03 3.57-3.066 1.533-5.656.514-9 0-11.207-.891-19.694.907-30 5v-3l6-1v-2h8z"/><path fill="#FBA50C" d="m433 514 2 2-3 3zm6 4 4 1-18 11-1-3 2-2c-.319-2.108-.319-2.108-1-4l7-2v2c3.795-.968 3.795-.968 7-3"/><path fill="#FEF4E0" d="M565 390h2q.364 6.428.647 12.86.102 2.184.228 4.367c.847 14.907.847 14.907-3.875 20.773h-3l.875-3.234c2.99-11.753 3.58-22.675 3.125-34.766"/><path fill="#FDEACE" d="M245 658h1l.445 2.727c2.089 11.979 5.223 23.586 8.555 35.273l.628 2.207q.684 2.396 1.372 4.793c-5.002-4.08-6.08-7.693-7-14h-1v-10h-2c-1.345-7.097-2.24-13.773-2-21"/><path fill="#FDAC0E" d="M599 352h8l1 6 1.75.375c2.273.631 4.175 1.514 6.25 2.625l-1 3c-4.75-.875-4.75-.875-7-2v-3l-1.687.813C604 360 604 360 601.25 357.75 599 355 599 355 599 352"/><path fill="#FEF9D8" d="m623.375 622.875 2.23.027c1.799.024 3.597.06 5.395.098l1 3-3.445-.14c-13.439-.38-24.629 1.461-36.555 8.14v-3h2v-2l3.07-.805 4.055-1.07 2.016-.527c3.013-.798 5.908-1.617 8.828-2.723 3.882-1.12 7.392-1.094 11.406-1"/><path fill="#F97B24" d="m448 834-1.937.938c-2 .897-2 .897-3.063 2.062-1.849.234-3.705.413-5.562.563l-3.067.253L432 838v-2l-11-1c8.171-5.447 17.82-2.59 27-1"/><path fill="#EDA82F" d="M692 483c1.313 3.938.37 5.02-1.437 8.688-3.897 7.475-8.433 13.466-16.563 16.312v-3l2 1v-5l3-1 1-2h4v-3h3v-3h2z"/><path fill="#EC9C2F" d="M624 505h6l1 3c2.69.999 2.69.999 5.875 1.625 6.103 1.368 6.103 1.368 9.125 2.375 1.481.08 2.966.108 4.45.098l2.568-.01 2.67-.025 2.705-.014q3.303-.018 6.607-.049c-4.647 2.663-8.95 2.368-14.187 2.375l-2.752.074c-9.414.04-16.151-3.737-24.061-8.449z"/><path fill="#FDF8DD" d="M702 288v4h-2l.484 3.012c.77 6.199.739 12.434.756 18.671.01 2.142.041 4.283.072 6.424q.01 2.05.016 4.1l.028 3.734C701 331 701 331 699.48 332.925L698 334l.484-3.293c.662-5.338.738-10.646.766-16.02l.063-2.935c.037-7.014-1.15-13.088-3.313-19.752 3.75-4 3.75-4 6-4"/><path fill="#E57F31" d="M308 771h4v7l2 1v4c1.281 1.55 1.281 1.55 3 2.75l3 2.25-1 2-15-14 4-1zm6 5 2 2h-2z"/><path fill="#FA9E15" d="M272 517h1l-.035 1.863c-.01.809-.018 1.617-.027 2.45l-.036 2.425c.001 2.43.001 2.43 1.098 5.262h-3l-1 5-6-1c1.554-5.906 4.595-10.977 8-16"/><path fill="#FEEFCE" d="M485 708h11c-2.663 2.663-5.07 3.051-8.687 4.063l-3.637 1.035c-7.927 1.946-15.496 2.024-23.613 1.965l-3.518-.014q-4.272-.018-8.545-.049v-1l2.06-.06c3.126-.096 6.252-.206 9.377-.315 1.07-.03 2.14-.062 3.24-.094 5.656-.207 10.928-.656 16.405-2.115C481 711 481 711 485 711z"/><path fill="#E28A32" d="m402 696 1.914 1.066c3.018 1.666 6.052 3.299 9.086 4.934l3.18 1.781c9.588 5.144 19.266 7.777 29.82 10.219v1c-7.59-.487-14.67-1.998-22-4v-2h-5v-2l-2.687-.875c-2.821-.958-5.569-1.97-8.313-3.125l-2.187-.812c-2.472-1.62-2.82-3.47-3.813-6.188"/><path fill="#FB8718" d="m268 708 4 1-2 11h2c-.613 2.962-1.254 4.38-3 7-4.277-9.27-4.277-9.27-3.598-13.512.848-2.176.848-2.176 2.598-5.488"/><path fill="#FBEAC4" d="m634 512 2.344.492c4.739.658 9.378.653 14.156.633l2.8.012c4.68-.007 9.098-.17 13.7-1.137-1.811 2.603-3.057 3.012-6.187 3.688-6.897.649-13.894.388-20.813.312v2h-3v-2h-2z"/><path fill="#F29123" d="M248 578h1a1136 1136 0 0 1-.437 4.75l-.247 2.672A44 44 0 0 1 247 592h2c1.382 2.765 1.095 5.046 1.063 8.125l-.028 3.32L250 606l-2-2v-3l-3 1c-.52-8.345 1.042-15.91 3-24"/><path fill="#EBC438" d="M797 198c6.912 8.422 6.697 19.612 6 30-.48 3.11-1.148 5.965-2 9h-1l.032-2.507c.041-3.748.067-7.495.093-11.243l.05-3.945.02-3.79.032-3.49c-.221-2.95-.591-4.592-2.227-7.025l-2-1z"/><path fill="#FEF1D6" d="m544 673 3 1q-2.836 2.663-5.687 5.313l-1.608 1.513c-3.057 2.832-6.017 5.17-9.705 7.174v-2h-2l1-3 5-1v-4l5 1-1-5 6 1z"/><path fill="#FEF3CD" d="M279 502h2c-1.63 4.719-4.187 8.647-6.875 12.813-3.396 5.265-6.405 10.538-9.125 16.187-1.136-3.717-.667-5.47 1-9h2l-.312-2.187c.435-3.923 2.564-5.065 5.312-7.813.697-2.324 1.37-4.657 2-7l3-1z"/><path fill="#FCBB0E" d="M532 350c2.929.628 5.361 1.586 8 3v2l5 2c-.812 1.938-.812 1.938-2 4l-3 1v-2h-4l-.875-2.937c-.767-3.17-.767-3.17-3.125-4.063z"/><path fill="#FEEFE0" d="m552 816-1 3-6 1-1 3c-2.91 1.416-5.847 2.3-9 3v2l-7-1c2.646-2.094 5.176-3.676 8.258-5.043l2.394-1.064 2.473-1.08 2.496-1.116C549.736 816 549.736 816 552 816"/><path fill="#FDECCB" d="M607 773c0 3 0 3-1.375 4.688C604 779 604 779 602 779l-.812 2.438L600 784l-3 1-.875 1.813c-1.526 2.968-3.335 4.394-6.125 6.187-2.164-.395-2.164-.395-4-1 13.957-12.957 13.957-12.957 21-19"/><path fill="#FEECCF" d="M288 758a304 304 0 0 1 10.625 11.063l1.445 1.564c2.468 2.69 4.807 5.402 6.93 8.373-4.5-1.256-7.633-2.727-11-6a208 208 0 0 1-2-5 125 125 0 0 0-4-3c-1.662-2.659-2-3.804-2-7"/><path fill="#EBA62E" d="M656 368h2v2l4 1c-6.786 3.084-13.746 3.162-21.062 3.125l-2.354.012c-4.306-.008-8.344-.282-12.584-1.137v-1l22 1v-3h8z"/><path fill="#FA7916" d="M344 802c3.147.7 6.026 1.76 9 3v2l3-1 1 2h3v2h-2v2h2v2l3 1c-3.627-.584-6.468-1.547-9.687-3.312-.767-.41-1.534-.818-2.325-1.239-2.243-1.635-2.91-2.932-3.988-5.449-1.541-1.71-1.541-1.71-3-3"/><path fill="#EAAA36" d="M596 353c2.622 1.049 3.794 1.65 5.25 4.125L602 359h6v3l1.813.313c2.187.687 2.187.687 3.5 2.093 2.117 2 4.158 2.758 6.875 3.781.9.345 1.802.689 2.73 1.043L625 370l-2 2c-10.54-4.424-20.995-8.854-27-19"/><path fill="#FBFBEE" d="m446 368 2.438.563L451 369l1-1c1.525.09 3.047.245 4.563.438l2.503.308L461 369c-2.752 2.956-5.42 5.116-9 7h-2l-2-5h-2z"/><path fill="#F3962B" d="m537 682 1 2c-2.28 4.822-3.972 7.75-9 10h-2l-1 2-4-2z"/><path fill="#FDEFCC" d="m486 490 2 1-2 3 2 1-1.715.55c-.733.252-1.467.504-2.223.762l-2.214.739c-2.207.861-2.207.861-2.848 3.949l-3.812.313c-2.793.336-3.932.487-6.188 2.25L468 505l-2-2c3.283-2.2 6.578-4.383 9.875-6.562l2.84-1.905 2.715-1.787 2.507-1.666z"/><path fill="#EF9228" d="M364 611h1v21l-2-1-2 7c-.872-2.995-1.108-5.636-1.062-8.75l.027-2.422L360 625l3-1-.035-2.336-.027-3.039-.036-3.023C363 613 363 613 364 611"/><path fill="#FEF5CD" d="M717 197c1 3 1 3-.312 5.688L715 206c-2.993 9.295-2.255 18.43-1 28-2.769-3.13-3.365-5.05-3.293-9.203l.03-2.969.076-3.078.04-3.125q.054-3.812.147-7.625h2l-.125-2.25c.129-2.838.696-4.338 2.125-6.75h2z"/><path fill="#FEF1D4" d="M612 493c1.848 1.777 3.642 3.521 5.18 5.578 4.49 5.898 10.353 8.98 16.82 12.422-3.41 1.136-4.003.867-7.187-.437l-2.168-.872L623 509v-3l-1.75-.437L615 504l-.375-2.937L614 498l-2-1z"/><path fill="#E7AE39" d="M689 450c6.365 7.863 6.644 17.242 6 27-.305 2.005-.63 4.006-1 6h-1l-.076-1.82a2953 2953 0 0 0-.361-8.118l-.12-2.865-.127-2.724-.11-2.524c0-1.952 0-1.952-1.206-2.949a359 359 0 0 1-1-7c-.32-1.67-.647-3.337-1-5"/><path fill="#ECA534" d="M609 628a875 875 0 0 1-4.375 2l-2.46 1.125C600 632 600 632 598 632c-1.206 2.332-2.165 4.496-3 7h-9c15.428-13.524 15.428-13.524 23-11"/><path fill="#FDA30E" d="m414 528 7 1-1 2h-2l-1 3h-4l-2 4-4-1c.25-1.875.25-1.875 1-4 1.938-1.062 1.938-1.062 4-2z"/><path fill="#EDB241" d="m632 432 2 1c-2.526 4.31-5.493 5.3-10 7l1 3-7 1-1 3-2-1c4.705-6.139 9.83-10.868 17-14"/><path fill="#E98228" d="M277 741h2l2 3c2.584.25 2.584.25 5 0v5h2l-1 6c-3.925-3.7-7.022-7.49-10-12z"/><path fill="#FEF2C8" d="m662 428 1 2-1.8-.016q-4.1-.029-8.2-.046l-2.832-.026c-5.49-.02-10.737.275-16.168 1.088l1-3c7.712-2.57 19.048-1.836 27 0"/><path fill="#FABA11" d="M540 353c5.442 2.302 9.22 5.147 11.5 10.563.504 3.462.504 4.654-1.5 7.437l-1-5h-2l-1-5-3-1 1-2c-1.229-1.294-1.229-1.294-4-3z"/><path fill="#E6752C" d="m407 830 2.563 1c3.39 1.17 3.39 1.17 6.875.938 4.177.073 6.798 1.32 10.562 3.062 2.779.691 2.779.691 5 1v1c-9.691-.427-18.57-1.721-28-4z"/><path fill="#F6A91B" d="M492.5 479.75C495 481 495 481 497 484c-5.176 3.223-5.176 3.223-7 4l-3-1c0-4 0-4 1-7 2-1 2-1 4.5-.25"/><path fill="#F6AC20" d="m517.066 463.902 2.496.036 2.504.027L524 464l-4 2v4l-7 3c-.597-2.763-1-5.16-1-8h2c1-1 1-1 3.066-1.098"/><path fill="#F1B72B" d="m494 349 2 1-3 1a280 280 0 0 0-1 4c-3.026 2.017-5.57 2.857-9 4l-3.187 1.688C477 362 477 362 474 361l2.344-1.355 3.156-1.832 3.305-1.918a206 206 0 0 0 7.82-4.895z"/><path fill="#FDF0BF" d="M793 248h2l-1 5-4 1-1 6c-3.406.778-6.508 1.1-10 1l2-1.562c2.449-1.99 4.86-4.004 7.25-6.063.686-.59 1.372-1.18 2.078-1.79 1.77-1.498 1.77-1.498 2.672-3.585"/><path fill="#FEF0CB" d="m524 690 3 1c-7.901 6.208-15.933 10.764-25 15l-1-2c5.75-3 5.75-3 8-3v-2l2.25-.875c4.685-1.619 4.685-1.619 7.75-5.125 2.563-.625 2.563-.625 5-1z"/><path fill="#FE7F13" d="M312 767v2l5 2-5 4v-4h-4v4h-4c-.312-2.312-.312-2.312 0-5 2.861-2.242 4.34-3 8-3"/><path fill="#FDF1C7" d="m689 493 1 3c-1.363 1.867-1.363 1.867-3.312 3.875-2.259 2.418-3.594 3.87-4.75 7C681 509 681 509 678.313 510.25c-3.429.776-6.823 1.331-10.313 1.75 2.02-2.02 3.593-2.864 6.125-4.125 6.317-3.439 11.919-8.205 14.875-14.875"/><path fill="#F7B629" d="M678 438h2a159 159 0 0 1 5 6c-2.937-.75-2.937-.75-6-2-.875-2.125-.875-2.125-1-4m-6 3 7 1c.625 1.875.625 1.875 1 4l-2 2h-3v-3h-3z"/><path fill="#E8BF35" d="M674 267c9.141 5.253 15.127 11.675 20 21h-3l-1 2-.375-2.937L689 284l-2-1v-4h-2l-1.687-2.187c-2.009-2.443-3.507-3.766-6.063-5.5L674 269z"/><path fill="#FEF6C6" d="M777 261h2c-1 3-1 3-2.832 4.148-6.177 2.427-13.42 1.995-19.98 2.102l-2.247.065c-3.352.02-5.549-.078-8.453-1.83L744 264l3.313.5c10.022 1.196 18.972.367 28.687-2.5z"/><path fill="#FDAA10" d="M640 630h2v3h-2l-1 3h-11l1-4c3.674-1.176 7.17-1.074 11-1z"/><path fill="#FDEACC" d="M400 832c6.874.793 13.678 1.908 20.5 3.063l3.36.564q4.07.684 8.14 1.373v1c-11.01-.362-21.287-1.261-32-4z"/><path fill="#FEEBCA" d="m416 704 9 1v2l3.938.375c2.214.21 2.214.21 4.062.625l1 2c2.527.656 2.527.656 5 1v2c-8.194-1.759-15.497-4.263-23-8z"/><path fill="#FEF6CF" d="M505 343c3.73-.058 7.458-.094 11.188-.125 1.055-.017 2.11-.034 3.197-.05l3.095-.02 2.841-.032c2.956.25 5.059.838 7.679 2.227l1 3-2.535-.656c-9.08-2.172-17.158-2.696-26.465-2.344z"/><path fill="#EEC840" d="M766.988 175.453c2.02.451 4.02.988 6.012 1.547-1.375 1.5-1.375 1.5-3 3h-2v-3h-22c5.62-3.747 14.441-2.54 20.988-1.547"/><path fill="#FCAC0E" d="M624 368h3v2h3v-2l6 2v1l12 1v1c-8.07.105-15.987.034-24-1l-1-3z"/><path fill="#EBB734" d="M475 363c-3.75 3-3.75 3-6 3l-1 3c-2.969 2.194-5.492 3.83-9 5l-2 1-2-2a1021 1021 0 0 1 8.313-5.562l2.38-1.616 2.295-1.513 2.11-1.413C472 362 472 362 475 363"/><path fill="#EB861E" d="M577 800q-3.432 2.258-6.875 4.5l-1.973 1.3c-4.925 3.2-4.925 3.2-7.152 3.2l1-3h3l1-4h2v-2c3.434-.859 5.617-.976 9 0"/><path fill="#E6832D" d="M265 720h2q1.007 1.934 2 3.875l1.125 2.18C271 728 271 728 271 730l4 1 2 10c-3.847-3.38-5.934-7.148-8.25-11.625l-1.102-2.062C265 722.274 265 722.274 265 720"/><path fill="#FDF6DE" d="M568 643h4l1 4 4 1-5 5-3-1 2-4-4-2z"/><path fill="#FDF5D3" d="M634 626c1.916-.081 3.833-.14 5.75-.187l3.234-.106c3.36.326 4.49 1.173 7.016 3.293 2.208-.217 2.208-.217 4-1v2l-2 1v2l-18-6z"/><path fill="#FFFDD8" d="M631 255c1.924-.372 1.924-.372 4.246-.363l2.537.002 2.654.048 2.643-.01c6.52.056 6.52.056 9.92 2.323l-24 1z"/><path fill="#E57832" d="M359 815c4.847.782 9.377 2.398 14 4v2l3-1 2 2c2.584.167 2.584.167 5 0l1 4c-8.871-2.192-16.825-6.022-25-10z"/><path fill="#EEB535" d="m408 402 2 1-1 2h-2l-.625 1.875c-1.93 2.982-4.036 3.123-7.375 4.125l-2.125 1.688L395 414c-2.117-.418-2.117-.418-4-1 2.783-1.867 5.578-3.716 8.375-5.562l2.406-1.616 2.305-1.513 2.126-1.413z"/><path fill="#F1C732" d="M746 178c-5.625 3-5.625 3-9 3l-.875 1.875C735 185 735 185 733 187v-2l-5 1c3.569-5.84 11.127-10.45 18-8"/><path fill="#FEEFD5" d="M380 825c6.82 1.574 13.382 3.728 20 6v1q-2.187.039-4.375.063l-2.46.035C391 832 391 832 389 831v-2l-9-1z"/><path fill="#FEEDD4" d="M351 812c5.206 1.58 9.984 3.779 14.875 6.125l2.375 1.129q2.876 1.37 5.75 2.746c-3.429.977-5.279.9-8.687-.25l-2.387-.766C361 820 361 820 360 817l-2.25-.25c-3.262-.89-4.56-2.235-6.75-4.75"/><path fill="#FDA00E" d="M374 560h3c.313 2.25.313 2.25 0 5-2.375 2.125-2.375 2.125-5 4l-2 3h-2c.526-3.788 1.381-6.172 4-9h2z"/><path fill="#FDEEC2" d="M560 428c1.033 2.788 1.045 3.868.063 6.75L559 437h-2l-.125 2.688c-1.196 4.528-3.138 5.608-6.875 8.312 0-3.599.958-5.095 3-8h2l.813-2.625c1.158-3.293 2.57-6.286 4.187-9.375"/><path fill="#F2B231" d="M677 362c-5.371 5.67-5.371 5.67-9 7h-3c.188-1.812.188-1.812 1-4 3.661-2.929 6.382-3.322 11-3"/><path fill="#F19A2B" d="M362 592h3c3.22 7.943 3.22 7.943 2.063 13.188l-.59 2.73L366 610h-1c-.2-1.32-.2-1.32-.402-2.668l-.536-3.52-.527-3.48A181 181 0 0 0 362 592"/><path fill="#FEF2CD" d="m536 458 2 1c-.687 1.875-.687 1.875-2 4a104 104 0 0 1-5 2l-2.437 2.063c-2.92 2.207-4.962 2.602-8.563 2.937 2.95-3.174 6.002-5.42 9.688-7.687 3.334-1.922 3.334-1.922 6.312-4.313"/><path fill="#FDF0BE" d="M714 234c1.63 2.445 3.08 4.87 4.5 7.438l1.281 2.308A183 183 0 0 1 723 250l-4-1v-2l-3 1q-.506-2.374-1-4.75l-.562-2.672C714 238 714 238 714 234"/><path fill="#EFCB3C" d="M716 202c1.04 3.225.924 5.397.188 8.688l-.575 2.628L715 216l-.582 2.652q-.7 3.176-1.418 6.348h-1c-.408-7.804.369-14.61 3-22z"/><path fill="#F6CC33" d="M726 186h2c-1.525 5.8-2.653 9.676-8 13-.707-1.703-.707-1.703-1-4 1.363-2.36 1.363-2.36 3.313-4.75l1.925-2.422z"/><path fill="#FBD007" d="M780 184h4v2l1.75.75c2.55 1.417 4.268 3.126 6.25 5.25l-1 3-4-1v-5l-9-1z"/><path fill="#FCA30F" d="M400 528h8c-.312 1.938-.312 1.938-1 4l-3 1c-1.209 2-1.209 2-2 4h-2z"/><path fill="#FDF0C7" d="M419 397c-5.945 3.435-11.965 6.726-18 10l1-4 2 1v-3h5v-2h3v-2c3.01-.934 3.867-1.044 7 0"/><path fill="#FBBD18" d="m783 256 2 1c-4.361 3.297-7.384 4.688-13 5-2.437-.437-2.437-.437-4-1v-3c5.75-.125 5.75-.125 8 1l3.5-1.5z"/><path fill="#FBA21C" d="M585 640v3l-4 2 1.5 2.25C584 650 584 650 584 654h-3l-1-5-4-1z"/><path fill="#EB9924" d="m371 576 5 1c-1.414 4.347-2.973 8.614-4.625 12.875l-1.352 3.492L369 596c-1.137-3.336-.858-5.071.438-8.312 1.508-4.142 1.842-7.308 1.562-11.688"/><path fill="#EB9C23" d="m379 563 2 3 1-2 3 1a2185 2185 0 0 1-3.375 4.875l-1.898 2.742C378 575 378 575 376 577c-.104-5.51.48-9.13 3-14"/><path fill="#F4B82C" d="M691 332h5c1.148 1.703 1.148 1.703 2 4-.898 2.36-.898 2.36-2.375 4.75l-1.46 2.422c-.385.603-.77 1.206-1.165 1.828-1.255-3.766-.37-5.372 1-9h-2l-1 2z"/><path fill="#FAFDF6" d="M786 176v2h-3l1 5c-3.791-1.45-7.387-3.152-11-5v-1c4.41-1.102 8.484-1.077 13-1"/><path fill="#E18F38" d="m503 705 2 1c-7.356 5.333-15.76 8.75-25 8 3.13-2.086 5.654-2.896 9.25-3.937 3.757-1.114 7.378-2.235 10.938-3.875z"/><path fill="#FCA421" d="M676 670h2c2 2 2 2 2.047 4.129l-.297 2.433-.266 2.442L679 681l-2 1-1-2h-2z"/><path fill="#FDF0CB" d="M432 526v2l-2 1-1 3c-2.375 1.063-2.375 1.063-5 2l-3 2c-2.687.125-2.687.125-5 0 11.923-10 11.923-10 16-10"/><path fill="#EBA432" d="M459 504h5c-2.833 3.045-5.655 5.169-9.25 7.25l-2.703 1.578L450 514l-1-2h2l-1-3c5.625-2 5.625-2 9-2z"/><path fill="#FEF5CA" d="M697 336h1c.296 5.037.071 7.942-3 12a89 89 0 0 1-4 4l-2-1z"/><path fill="#F4C11F" d="M714 216h2c.1 6.11.071 11.974-1 18-2.1-3.437-2.241-6.136-2.187-10.125l.019-3.195C713 218 713 218 714 216"/><path fill="#FEF4B4" d="M800 203h2c1.904 3.224 2.257 5.628 2.266 9.352l.007 3.078-.023 3.195.023 3.219-.007 3.07-.007 2.811C804 230 804 230 802 232l.07-3.805c.111-8.665.145-16.75-2.07-25.195"/><path fill="#FB8215" d="M275 730h4c.597 2.763 1 5.16 1 8 .306 1.34.635 2.675 1 4l-2 1v-2h-2c-2-7.625-2-7.625-2-11"/><path fill="#DF9832" d="M664 721c-4.79 4.926-9.777 9.536-15 14 0-3.948 1.337-5.185 4-8h3v-5c5.75-2.125 5.75-2.125 8-1"/><path fill="#FEF3D2" d="m289 488 3 1-10 13c-1-3-1-3-.223-5.043l1.16-2.144 1.153-2.168L285 491h4z"/><path fill="#FDF0C3" d="m502 480 2 1c-3.054 4.58-6.73 7.415-12 9a64 64 0 0 1-4-1q3.43-2.294 6.875-4.562l1.973-1.327C498.526 482.012 500.26 481 502 480"/><path fill="#E88529" d="m249 674 2 3 1.625 1.313c2.023 2.483 1.581 4.591 1.375 7.687l2 1h-2v5c-2.524-2.524-2.79-4.424-3.625-7.875-.26-1.05-.52-2.099-.79-3.18C249 678 249 678 249 674"/><path fill="#FFEFD5" d="M373 583h1c-.62 5.89-1.317 11.634-4 17h-2c.538-6.182 2.546-11.327 5-17"/><path fill="#FEE6BE" d="m384 565 1 2-1.312 1.723c-3.623 5.023-5.482 8.056-4.688 14.277l-5-1c1.426-3.927 3.294-7.246 5.563-10.75l1.878-2.922C383 566 383 566 384 565"/><path fill="#F0B33B" d="M436 385v3l-3 1-1 3h-2v2l-3 1v-2l-4 1c2.425-2.682 5.075-4.369 8.188-6.187l2.73-1.606z"/><path fill="#FBAD0D" d="m318 470 3 1c-.687 2.438-.687 2.438-2 5-2.625.813-2.625.813-5 1 0-3 0-3 2-5.187zm-5 7 1 3h-4v-2z"/><path fill="#F6FEF2" d="M618 432c2.063.438 2.063.438 4 1-.75 1.938-.75 1.938-2 4-2.125.75-2.125.75-4 1v2h-2v2l-3-1c1.235-3.706 3.197-5.337 6-8z"/><path fill="#EDAF3C" d="m367 428 2 3c-3.1 2-6.291 3.684-9.625 5.25l-2.29 1.078C355 438 355 438 352 437z"/><path fill="#FDEACF" d="m400 694 9 3v2h6l1 4c-3.9 0-5.78-1.4-9.125-3.375l-3.258-1.898C401 696 401 696 400 694"/><path fill="#E6A336" d="m439 518 4 1-16 10c0-3 0-3 1.313-4.562 3.022-2.575 6.037-3.997 9.687-5.438z"/><path fill="#FEF2D4" d="M672 433c7.818 1.09 7.818 1.09 11 3 .813 3.125.813 3.125 1 6l-4-2v-2l-2.312-.812c-2.562-1.132-3.885-2.1-5.688-4.188"/><path fill="#EEBA3F" d="M629 259c-1 2-1 2-3.18 2.816l-2.695.747-2.68.753L618 264l-3 1v3l-4-1c4.782-5.53 10.468-8.706 18-8"/><path fill="#FEEFD0" d="m620 761 1 4c-4.625 4-4.625 4-8 4v3l-5 1c3.606-4.59 7.474-8.322 12-12"/><path fill="#E5872D" d="M245 652c3.977 7.386 4.24 13.742 4 22-2.217-3.326-2.555-5.393-3.125-9.312l-.508-3.364c-.347-3.142-.434-6.166-.367-9.324"/><path fill="#FFF1CF" d="M592 635a1058 1058 0 0 1-4.75 4.375l-2.672 2.46c-2.176 1.828-3.986 3.063-6.578 4.165 0-3 0-3 1.313-4.687C581 640 581 640 584 640l.25-1.875c.75-2.125.75-2.125 2.625-3.437C589 634 589 634 592 635"/><path fill="#FDF3D4" d="M341.063 441.938 344 442c-3.389 3.588-6.761 6.457-11 9h-2v-3l5-1 .438-1.937c.89-3.268 1.067-3.053 4.625-3.125"/><path fill="#FBB20A" d="m380 424 1 3-7 6c-2.437-.812-2.437-.812-5-2l-1-3h2v2h4v-2a99 99 0 0 1 5-3z"/><path fill="#FBB717" d="M481 361c-2 3-2 3-5 4v3h-7v-2c7.778-7.111 7.778-7.111 12-5"/><path fill="#E9B535" d="M522 345c7.066.97 12.23 2.777 18 7l-2 1-3-2c-2.28-.454-2.28-.454-4.687-.625l-2.45-.227L526 350l2-1v-2l-6-1z"/><path fill="#FEF4CB" d="M610 626c-3.755 1.947-7.626 3.464-11.562 5a79 79 0 0 0-6.438 3v-3h2v-2c10.374-3.444 10.374-3.444 16-3"/><path fill="#FDF1C3" d="M516 472c-.573 2.867-.861 3.861-3 6-2.706 1.353-4.292 2.115-7.312 1.625L504 479c5.75-4 5.75-4 8-4v-2c2-1 2-1 4-1"/><path fill="#E97D2E" d="M320 790h6l2 4h3v2l4 1h-2v2c-5.343-1.832-9.143-4.94-13-9"/><path fill="#EB9A2B" d="m646 732 3 1c-2.101 3.982-4.37 6.35-8 9l-1-2h2l-.562-1.875C641 736 641 736 642 734l4 1z"/><path fill="#E49135" d="M375 664c2.553 3.318 4.875 6.762 7.188 10.25l2.167 3.266L386 680l-3 1a771 771 0 0 1-4-6.25l-1.156-1.777C375.723 669.6 375 668.094 375 664"/><path fill="#EEA530" d="M504 474h7c-3.407 3.975-7.328 5.868-12 8l-1-3h4z"/><path fill="#FAA814" d="m306 474 3 1c-1.37 3.161-1.99 3.993-5 6-.25 2.584-.25 2.584 0 5a91 91 0 0 1-4-4v-2a263 263 0 0 1 5-4z"/><path fill="#FDF0C0" d="m358 431 4 1q-1.932 1.257-3.875 2.5l-2.18 1.406C354 437 354 437 352 437v2l-5 2c2.202-4.845 2.202-4.845 4-7 3.75-.937 3.75-.937 7-1z"/><path fill="#FDB90F" d="m500.688 349.375 2.449.336L505 350v2l-3.312-.187c-3.61-.169-3.61-.169-5.625 1.687L495 355l-2-1v-3c3.353-2.236 3.907-2.173 7.688-1.625"/><path fill="#FDFAEA" d="m379 824 1 3-3.75-.125c-3.266-.012-5.465.268-8.25 2.125 0-3 0-3 1.563-4.75 3.408-1.748 5.774-1.025 9.437-.25"/><path fill="#FEF1CF" d="M406 544c-1 3-1 3-3 4.313-2.725 2.299-2.693 4.231-3 7.687l-6-2 5-5 2.688-2.812C404 544 404 544 406 544"/><path fill="#FEF1CC" d="m452 512 2 1-1 2h-3v2h-2v2c-1.75 1.063-1.75 1.063-4 2l-4-1z"/><path fill="#FDA40D" d="M638 501h2l-1 5h-3v3l-5-1c1.252-3.756 2.63-4.147 6-6z"/><path fill="#FBB40B" d="M440 388c-1.312 1.5-1.312 1.5-3 3h-3l-.25 1.875C433 395 433 395 430.938 396.25L429 397l-1-3h2v-2c2.453-3.099 6.15-5.925 10-4"/><path fill="#FEEEB8" d="M550 360c4.897 1.632 6.474 4.637 9 9l1 1c.04 2 .043 4 0 6-3.418-4.394-6.058-8.771-8-14h-2z"/><path fill="#FCF9DB" d="m680 360 1 2h2v2l-7 1v3h-5c2.853-2.932 5.65-5.643 9-8"/><path fill="#FDF1B2" d="M488 353c-10.374 7.667-10.374 7.667-16 9v-2l5-1v-2h3v-2c4.39-3.203 4.39-3.203 8-2"/><path fill="#FAF8DA" d="M799 189h1v6h-2l1.063 1.813C800 199 800 199 799 202l-2-6h-2l-1-4h4z"/><path fill="#FD7719" d="m430.438 831.813 2.37-.043C435 832 435 832 438 834c-3.837.904-7.375 1.106-11.312 1.063l-3.239-.028L421 835c3.565-2.377 5.231-3.153 9.438-3.187"/><path fill="#FEEECC" d="m557 662 3 1a640 640 0 0 1-3.875 3.5l-2.18 1.969C552 670 552 670 550 670v2h-2l1-4h3l.813-1.875C554 664 554 664 557 662"/><path fill="#FAB612" d="M563 408h1c-.45 5.881-.985 11.43-3 17l-2 1v-6h2l-.625-2.375L560 415l2-2c.648-2.57.648-2.57 1-5"/><path fill="#FCEFD7" d="m567 807-2 5h-2l1 3-7-2c7.4-6 7.4-6 10-6"/><path fill="#F78314" d="M260 703c3.938 3.323 3.938 3.323 4.25 6.75L264 712l-4-1c-1.125-5.75-1.125-5.75 0-8"/><path fill="#FD8E0E" d="M375 670c1.938.563 1.938.563 4 2 .75 3.625.75 3.625 1 7h-4l-.437-1.875c-.495-2.158-.495-2.158-1.563-4.125z"/><path fill="#F0A91F" d="M681 500c-.337 3.12-.621 4.621-2.875 6.875L676 508l-3-1 1-2 2 1v-5c3-1 3-1 5-1"/><path fill="#FAE4B7" d="M700 310h1c.087 3.437.14 6.874.188 10.313l.076 2.958.029 2.842.048 2.619C701 331 701 331 698 334z"/><path fill="#F8AF0B" d="M623 443v2h-2v2l-3 1a113 113 0 0 0-3 5h-1c-.375-2.187-.375-2.187 0-5 5-5 5-5 9-5"/><path fill="#FEF9E4" d="m377 416 7 1c-3.2 2.743-6.005 4.63-10 6l-1-2 3-1c.733-2.015.733-2.015 1-4"/><path fill="#FCF2CF" d="M542 346h2l-3 6h2l-1 2a809 809 0 0 1-4-2.437l-2.25-1.372L534 349v-1l3.438-.437c3.37-.175 3.37-.175 4.562-1.563"/><path fill="#FEF6BB" d="M740 175h9c-3.07 2.047-5.69 2.997-9.187 4.125l-3.293 1.07L734 181v-3l6-1z"/><path fill="#FA9E1E" d="m262 539 3 3-1.5 1.125c-2.098 2.622-1.717 4.613-1.5 7.875h-4q.716-2.438 1.438-4.875l.808-2.742C261 541 261 541 262 539"/><path fill="#E8A039" d="m420 530 4 1-12 8c0-3 0-3 1-5l1.875-.437c2.233-.388 2.233-.388 3.625-2.188z"/><path fill="#F0B01E" d="m556 432 3 1-4 7-3-1c.313-2.375.313-2.375 1-5z"/><path fill="#FAC313" d="m680 273 2 1v2l3 1v2l2 1c-3 2-3 2-6 2-1-6.75-1-6.75-1-9"/><path fill="#F87615" d="M396 826h5v2l2 1 2 3c-3.669-.706-6.705-2.277-10-4z"/><path fill="#E28536" d="m560 811-12 7v-3c3.575-3.31 7.236-5.588 12-4"/><path fill="#FC8416" d="M563.563 800.938 566 801c-.187 2.375-.187 2.375-1 5-2.562 1.313-2.562 1.313-5 2-.043-2-.04-4 0-6 1-1 1-1 3.563-1.062"/><path fill="#FEF1D3" d="m369 647 2 1v2l3-1v11c-2.051-2.051-2.641-3.27-3.625-5.937-.39-1.035-.39-1.035-.79-2.09C369 650 369 650 369 647"/><path fill="#FFF2CF" d="m428 387 4 1-12 8-1-3c5.625-4 5.625-4 9-4z"/><path fill="#FEF7E2" d="M611 260q3.51.43 7 1c-3.125 2.645-6.088 3.844-10 5 1.875-4.875 1.875-4.875 3-6"/><path fill="#FDF8CD" d="M728 255q2.504 1.463 5 2.938l2.813 1.652L738 261v1c-3.29.224-5.423.304-8.375-1.25C728 259 728 259 728 255"/><path fill="#FA7D11" d="M289 752c3.809 1.445 5.297 3.326 7 7l-1 3c-3-3.625-3-3.625-3-7h-2l-1 2-2-2h2z"/><path fill="#E59938" d="m550 672-1 5-1.687.25c-3.01.976-4.935 2.702-7.313 4.75l-2-1q2.43-2.258 4.875-4.5l2.742-2.531C548 672 548 672 550 672"/><path fill="#FDEDC6" d="M393 554c1 2 1 2 .25 4.438-1.207 2.474-1.99 3.998-4.25 5.562l-4-1z"/><path fill="#E5A038" d="m394 551 3 1c-3.494 3.596-7.111 6.835-11 10 0-4 0-4 1.645-5.957l2.168-1.856 2.144-1.894z"/><path fill="#E0A33F" d="m272 517 1 2c-2.13 4.968-5.087 9.463-8 14l-1-2a94 94 0 0 1 3.375-6.562l1-1.827c2.45-4.435 2.45-4.435 3.625-5.611"/><path fill="#FCF6D9" d="M668 368c2 1 2 1 4 3v3c-3.41-.787-6.689-1.871-10-3 3-2 3-2 6-3"/><path fill="#E7B335" d="m487 353 1 2c-2.127 3.191-3.052 3.76-6.437 5.25l-2.372 1.078C477 362 477 362 474 361l2.59-1.496 3.348-1.942 3.34-1.933c2.55-1.376 2.55-1.376 3.722-2.629"/><path fill="#FABC0B" d="M691 288h3v4h-2l-1 4h-2v-6h2z"/><path fill="#F88327" d="M530.25 818c1.75 1 1.75 1 2.75 4l-10 1c4.39-5 4.39-5 7.25-5"/><path fill="#DD9738" d="m672 708 2 1a466 466 0 0 1-2.75 3.813l-1.547 2.144c-1.728 2.073-3.488 3.517-5.703 5.043v-3h2l.75-1.687c1.466-2.713 3.28-4.949 5.25-7.313"/><path fill="#FAA10B" d="m674 689 2 1v10h-2c-1.125-7.625-1.125-7.625 0-11"/><path fill="#F2A826" d="m649 632 7 4c-3.402 2.094-6.053 2.18-10 2l1-2h3z"/><path fill="#EEA12B" d="m276 510 1 2h2l-1 4-5 1c1.875-5.875 1.875-5.875 3-7"/><path fill="#FBA10C" d="m613 484 3 1c.125 2.875.125 2.875 0 6l-2 2v-2h-2z"/><path fill="#FEA524" d="m316 470 1 3-3 1v3h-4c1.477-4.677 1.477-4.677 4.125-6.312z"/><path fill="#FEAA24" d="M528 447h2l1 2c2.025.652 2.025.652 4 1l1 4h-4l-2-3-3-1z"/><path fill="#F8B430" d="M389 414c2.313.813 2.313.813 4 2-1.75 2.063-1.75 2.063-4 4-2.25-.25-2.25-.25-4-1l1-1-2-1c2.25-1.625 2.25-1.625 5-3"/><path fill="#EBB533" d="M540 353c3.941 1.668 6.79 4.227 10 7l-1 2-6-2 1-2c-1.229-1.294-1.229-1.294-4-3z"/><path fill="#FEE4C1" d="M552 816c-1 3-1 3-2.707 3.984l-2.106.766-2.082.797c-2.386.514-3.811.216-6.105-.547q2.685-1.256 5.375-2.5l3.023-1.406C550 816 550 816 552 816"/><path fill="#FEEFD1" d="m339 804 12 7c-4.557 1.14-4.557 1.14-7.687-.687l-1.825-1.012C340 808 340 808 339 804"/><path fill="#FCEBD5" d="M576 801c-.25 1.875-.25 1.875-1 4-1.812 1.313-1.812 1.313-4 2-2.137-.457-2.137-.457-4-1a466 466 0 0 1 3.375-2.5l1.898-1.406C574 801 574 801 576 801"/><path fill="#FEEBCE" d="m629 753 1 3c-2.53 3.092-5.225 3.91-9 5 4.625-5.75 4.625-5.75 8-8"/><path fill="#FE930C" d="M632 742h3v4h-3v2h-4v-2h2z"/><path fill="#FEEED8" d="M273 737c3.08 2.773 4.688 5.063 6 9-3-1-3-1-5-3l-2 1z"/><path fill="#FDEAC5" d="M247 576h1q-.214 2.595-.437 5.188l-.247 2.917c-.293 2.681-.743 5.261-1.316 7.895h-1v-12h2z"/><path fill="#F8F7E0" d="M692 486h1l3 10-4-1v-2h-2z"/><path fill="#F1A532" d="M611 480h3l-2 11c-2.408-2.408-2.681-3.65-3-7 .938-2.312.938-2.312 2-4"/><path fill="#FDF8D4" d="M669 258h3l-2 5 4 1v2c-2.937-.75-2.937-.75-6-2-1-2-1-2-1-4z"/><path fill="#FA7A1D" d="m486 833 3 2c-1 1-1 1-2.848 1.098L480 836v-3c3-1 3-1 6 0"/><path fill="#FDA20F" d="m280 512 2 1-1 5-5 1a56.5 56.5 0 0 1 4-7"/><path fill="#EBA42C" d="M672.188 507.938 674 509c-5.625 3-5.625 3-9 3 .813-1.937.813-1.937 2-4 3-1 3-1 5.188-.062"/><path fill="#E79A2E" d="M624 505h6l1 3c2 1.209 2 1.209 4 2-4.371-.508-7.39-1.452-11-4z"/><path fill="#EA9F3A" d="M615 496h2v2h4l3 7c-4.28-1.585-6.295-4.469-9-8z"/><path fill="#FCAE1E" d="M361 433c1 3 1 3 .063 5.188L360 440l-6-1c2.174-2.5 3.73-3.436 7-4z"/><path fill="#FEF1C6" d="M585 336c2.748 3.402 6 7.485 6 12-2.781-1.02-3.818-1.664-5.25-4.312-.755-2.706-.91-4.895-.75-7.688"/><path fill="#FDF8E6" d="M581 328c2.063 1.75 2.063 1.75 4 4-.25 2.25-.25 2.25-1 4l-2-2-2 1z"/><path fill="#FEF5CD" d="M616 258h13v1c-7.629 2.543-7.629 2.543-12 1z"/><path fill="#FEF8D3" d="M790 258c-1 1.5-1 1.5-3 3-2.718.273-5.257.135-8 0 3.818-3.028 6.186-4.494 11-3"/><path fill="#FE8B0D" d="m596 771 6 1-1 4-5-1z"/><path fill="#FDF0C8" d="m639 743 3 2-2.75 1.75c-2.77 1.918-4.97 3.794-7.25 6.25l-2-1z"/><path fill="#FEE9CF" d="M655 728c0 2.621-.313 4.51-1 7l-7 2q1.436-1.688 2.875-3.375l1.617-1.898A76 76 0 0 1 655 728"/><path fill="#FC8E0C" d="M499 709h7l-2 5-4-1z"/><path fill="#FEEECC" d="M377 667c3.022 1.007 3.886 1.79 6 4h1v6c-3.336-2.99-5.15-5.932-7-10"/><path fill="#FDAA12" d="M515 464h9l-4 2-1 3-3-1z"/><path fill="#EEB83C" d="M661 430q2.471.423 4.938.875l2.777.492L671 432l1 2-4 1v-2h-6z"/><path fill="#FEF4DB" d="M400 832c4.38.52 8.688 1.057 13 2v1c-4.944 1.206-8.209.63-13-1z"/><path fill="#FB7B0D" d="M525.688 822.813 528 823l1 3h-9c3-3 3-3 5.688-3.187"/><path fill="#FC890E" d="m592 776 7 1-2 1v2l-4 1z"/><path fill="#FD900E" d="m617 758 1 4c-5.625 3-5.625 3-9 3z"/><path fill="#FDF9E1" d="m670 650 6 2-1 6c-2.011-2.56-3.628-5.046-5-8"/><path fill="#F8AB13" d="M663 649c1.063 1.813 1.063 1.813 2 4l-1 3h-5a56.5 56.5 0 0 1 4-7"/><path fill="#EAA730" d="M660 640q1.723 1.432 3.438 2.875l1.933 1.617C667 646 667 646 668 648h-3l-1-2c-2.025-.652-2.025-.652-4-1z"/><path fill="#FE900C" d="M246 601h2v8l-3-1c-.043-2-.04-4 0-6z"/><path fill="#FEF2D1" d="M440 521c-1.293 2.884-2.66 4.872-5 7v-2l-3-1c5.75-4 5.75-4 8-4"/><path fill="#FBA808" d="M459 505v2l-7 1v-3c2.667-1.333 4.167-.671 7 0"/><path fill="#F8FCF2" d="M479 500v3c-2.312.688-2.312.688-5 1-1.812-1.437-1.812-1.437-3-3 2.928-.976 4.956-1.082 8-1"/><path fill="#FFEEC5" d="M305 473c-1.491 3.795-3.757 5.61-7 8l1-5h2v-2c2-1 2-1 4-1"/><path fill="#E3AF33" d="M319 461c0 3 0 3-1.531 4.605l-1.969 1.582-1.969 1.606L312 470l-2-1a141 141 0 0 1 5-5h2v-2z"/><path fill="#FBB809" d="m679 442 4 1 1 4-4 1z"/><path fill="#F9FEED" d="M569 415h1c.39 5.957.39 5.957 0 8-2.016 1.762-2.016 1.762-4 3q.462-2.47.938-4.937l.527-2.778C568 416 568 416 569 415"/><path fill="#FEF4C7" d="m438 381 4 1q-1.932 1.257-3.875 2.5l-2.18 1.406C434 387 434 387 432 387v-3l6-1z"/><path fill="#FDB21F" d="M456 376h4l2 5c-4 0-4 0-6-1z"/><path fill="#FDAF0B" d="m655 367 1 3h-10c1-2 1-2 2.813-2.625C651 367 651 367 655 367"/><path fill="#FEF7BD" d="m591 281 2 1-6 12c-1.334-4.002-.4-6.08 1-10 1.625-1.937 1.625-1.937 3-3"/><path fill="#EBC044" d="m595 279 1 4-3 2-1 3-3-1c3.75-6.875 3.75-6.875 6-8"/><path fill="#FEFAD3" d="m604 266 4 1-8 6c.313-2.375.313-2.375 1-5z"/><path fill="#FCFBE1" d="m738 262 6 1v2c-5.75 3-5.75 3-8 3z"/><path fill="#FEF3E0" d="M296 772c3.153.607 5.189 1.642 7.75 3.563l1.86 1.378L307 778l-2 1c-1.91-.926-1.91-.926-4.062-2.312l-2.16-1.364C297 774 297 774 296 772"/><path fill="#F59221" d="m508 705-1 4c-2.375.625-2.375.625-5 1l-2-2c4.625-3 4.625-3 8-3"/><path fill="#E0982F" d="M678 693c1.124 3.304.896 5.05-.437 8.25l-.872 2.14L676 705c-1.307-4.169-.398-6.885 1-11z"/><path fill="#E5812A" d="M254 694h3c2.277 8.036 2.277 8.036 1 12a1151 1151 0 0 1-2-4.875l-1.125-2.742C254 696 254 696 254 694"/><path fill="#EDAB3C" d="M668 648c2.799 2.528 4.458 4.204 5 8h-2v-2l-4 1z"/><path fill="#E6A33E" d="M585 640v3a167 167 0 0 1-4 3l-1 3-4-1z"/><path fill="#FAA908" d="M643 632h6l1 4c-4.75-.875-4.75-.875-7-2z"/><path fill="#FDEFC1" d="m415 536 1 3c-1.75 1.563-1.75 1.563-4 3l-4-1z"/><path fill="#FFF7DB" d="m634 512 12 2v1l-11 1z"/><path fill="#E5A737" d="m299 480 1 3-7 7-2-1z"/><path fill="#FEF1DB" d="m309 464 5 1-5 6c-.934-3.01-1.044-3.867 0-7"/><path fill="#EDB526" d="m624 440 1 3-7 1-1 3-2-1c2.346-3.519 4.553-6 9-6"/><path fill="#F5B90A" d="M416 404v4l-7-2v-2c2.667-1.333 4.167-.671 7 0"/><path fill="#EFC140" d="M777 262c-3.162 2.108-4.507 2.338-8.187 2.625l-2.731.227L764 265c3.75-3.073 8.275-5.363 13-3"/><path fill="#FDF4C0" d="M800 237c1.282 3.03.986 4.036-.25 7.188C798 247 798 247 795 248c1.45-3.791 3.152-7.387 5-11"/><path fill="#FBFFF1" d="M416 841h7l1 2-7 1z"/><path fill="#FD800B" d="m529 815 3 2c1.655.385 3.322.728 5 1l-1 2c-3.024-.588-6.018-1.227-9-2v-2z"/><path fill="#FEE7B7" d="M391 686c3.083 1.199 6.063 2.477 9 4l-1 4a1155 1155 0 0 1-4-3.437l-2.25-1.934L391 687z"/><path fill="#FE9206" d="m549 675 3 1-1 4-5-1 1-2h2z"/><path fill="#F0A42A" d="M464 498h2v2l4 1c-3.75 3-3.75 3-6 3z"/><path fill="#FEF2C9" d="M318 458c2.063.438 2.063.438 4 1-1.375 1.5-1.375 1.5-3 3h-2v2l-3 1v-2h2l.438-1.937C317 459 317 459 318 458"/><path fill="#FEF2DE" d="M456 368q2.514.428 5 1c-2.363 2.526-3.665 3.888-7 5 .875-4.875.875-4.875 2-6"/><path fill="#FDFFEB" d="M468 354h4l-1 4-4 1z"/><path fill="#EDB533" d="m691 345 1 2-4 6c-.934-3.01-1.044-3.867 0-7z"/><path fill="#FACD06" d="m733 185-2 5h-4c.313-1.937.313-1.937 1-4 3-1 3-1 5-1"/><path fill="#FEEDC0" d="m773 177 2.188.438L778 178l5 1 1 4c-3.791-1.45-7.387-3.152-11-5z"/><path fill="#FDCC03" d="m752 179-2 3c-3.625.188-3.625.188-7 0 2.61-3.48 4.831-3.278 9-3"/><path fill="#FCE6C9" d="m380 825 8 2-2 2c-3.125-.375-3.125-.375-6-1z"/><path fill="#FD7A1B" d="m335 793 2 3-1 3h-3v-2l-2-1v-2z"/><path fill="#ED8727" d="M576 794h7l-3 4-4-2z"/><path fill="#EF7D1B" d="m285 748 3 1-1 6-3-2z"/><path fill="#FDEAC6" d="M488 708h8c-2.952 2.952-5.955 3.087-10 4z"/><path fill="#E88D1F" d="M395 691c3.875 1.75 3.875 1.75 5 4h-7z"/><path fill="#FDF9E4" d="m544 673 3 1c-2 2-2 2-4.625 2.125L540 676l-1 3-1-5 6 1z"/><path fill="#FDEBC6" d="M370 590h1c.125 7.75.125 7.75-1 10h-2c.458-3.47.891-6.674 2-10"/><path fill="#FDEECC" d="M376 577h2l1 6-5-1z"/><path fill="#F8A316" d="M382 560h3v4h-3l-2 4c.523-2.763 1.109-5.326 2-8"/><path fill="#F7FEEE" d="M248 552h2v8l-3-1c-.043-2-.04-4 0-6z"/><path fill="#FCA527" d="M300 482c2 1.75 2 1.75 4 4v4h-2c-1.687-2.312-1.687-2.312-3-5z"/><path fill="#F2AE24" d="m415 399 1 3-1 2h-6l1-3c2.563-1.187 2.563-1.187 5-2"/><path fill="#FEF7CC" d="M472 363c-5.75 4-5.75 4-8 4 2.023-4.48 3.204-5.439 8-4"/><path fill="#ECAF3A" d="m591 346 4 1 1 6a141 141 0 0 1-5-5z"/><path fill="#F4B936" d="M510.125 344.188C512 345 512 345 514 348c-3.61 0-6.558-.96-10-2 2.22-1.348 3.501-2.044 6.125-1.812"/><path fill="#FBFCF1" d="M703 317h1c.293 6.055.293 6.055 0 8l-3 2v-7h2z"/><path fill="#FDC11F" d="M730 247h3l1 4h-3v2l-4-2h3z"/><path fill="#FDF6C1" d="m784 183 7 2 1 5a962 962 0 0 1-4-2.937l-2.25-1.653L784 184z"/><path fill="#E2853A" d="m573 799 4 1-7 5-2-1c2.25-2.562 2.25-2.562 5-5"/><path fill="#FDEFC8" d="m646 737 1 3c-1.25 1.563-1.25 1.563-3 3-2.187-.312-2.187-.312-4-1z"/><path fill="#FBFAEB" d="m521 688 7 1-4 1v2l-4 1z"/><path fill="#FD9F0A" d="M576 650h3v4l-4 1c0-4 0-4 1-5"/><path fill="#EBA22D" d="M405 539h6c-1.375 1.5-1.375 1.5-3 3h-2v2h-2z"/><path fill="#FEF2B8" d="M498 347c-2.622 2.154-4.644 3.4-8 4v-3c2.709-1.354 5.01-1.065 8-1"/><path fill="#E67F39" d="m407 830 5 2v2l-8-1z"/><path fill="#F1831D" d="m587 786 3 1-2 4h-4z"/><path fill="#FC7D16" d="M310 776h2v2l2 1-2 3-2-2zm4 0 2 2h-2z"/><path fill="#EC9538" d="m619 763-4 4-3-1 1-3c3-1 3-1 6 0"/><path fill="#F69524" d="m611 756 5 1-2 3h-3z"/><path fill="#FCDFB6" d="M253 692c1.963 3.505 2.959 7.134 4 11-2-1.562-2-1.562-4-4-.25-3.75-.25-3.75 0-7"/><path fill="#E8912D" d="m527 690 2 4h-2l-1 2-4-2z"/><path fill="#FFFEEA" d="m242 560 3 1v5l-2 1z"/><path fill="#F5A624" d="M430.188 523.313 432 524l-2.312 1.313c-2.269 1.424-3.908 2.72-5.688 4.687.407-2.36.898-3.86 2.313-5.812C428 523 428 523 430.188 523.313"/><path fill="#FE9E21" d="m636 506 5 1-2 3-4-1z"/><path fill="#FEF6E5" d="m326 452 1 3-5 3-1-3z"/><path fill="#F0B33A" d="m382 418 2 1-2 4h-6l2.438-1.937c1.837-1.469 1.837-1.469 3.562-3.063"/><path fill="#FCB508" d="m422 395 5 2-1 2-5-1z"/><path fill="#F4A619" d="M624 368h3v3h5v1h-8l-1-3z"/><path fill="#EEC023" d="m614 263 4 1-3 1v3l-4-1z"/><path fill="#EDBF36" d="m785 257-6 4-2-1c2-3 2-3 4-3.75 2-.25 2-.25 4 .75"/><path fill="#F6D24A" d="m732 181 2 1c0 2 0 2-1 5v-2l-5 1z"/></svg>